# xmcd
#
# Track frame offsets: 
#        182
#        13855
#        26227
#        37750
#        50577
#        66855
#        82045
#        94237
#        107770
#        124327
#        136805
#        149525
#        160145
#        172372
#        183812
#        193792
#        209287
#        219955
#        233010
#        244247
#
# Disc length: 3482 seconds
#
# Revision: 0
# Processed by: cddbd v1.5.2PL0 Copyright (c) Steve Scherf et al.
# Submitted via: ExactAudioCopy v1.3
#
DISCID=250d9814
DTITLE=Various Artist - Queens Of Country
DYEAR=1995
DGENRE=Country
TTITLE0=Lynn Anderson - Rose Garden
TTITLE1=Billie Jo Spears - Misty Blue
TTITLE2=Patsy Cline - Just Out Of Reach
TTITLE3=Wanda Jackson - Crazy
TTITLE4=Anne Murray - Both Sides Now
TTITLE5=Jeannie C. Riley - Harper Valley P.T.A.
TTITLE6=Skeeter Davis - End Of The world
TTITLE7=Dottie West - D.I.V.O.R.C.E.
TTITLE8=Lynn Anderson - When I Dream
TTITLE9=Billie Jo Spears - You Never Can Tell
TTITLE10=Patsy Cline - A Poor Man's Roses
TTITLE11=Wanda Jackson - It's Only Make Believe
TTITLE12=Anne Murray - The Last Thing On My Mind
TTITLE13=Jeannie C. Riley - Box Of Memories
TTITLE14=Barbara Mandrell - Release Me
TTITLE15=Melba Montgomery - No Charge
TTITLE16=Jan Howard - I Wish I Could Fall In Love Again
TTITLE17=Billie Jo Spears - Dallas
TTITLE18=Donna Fargo - Wishful Thinking
TTITLE19=Lynn Anderson - Blue Bayou
EXTD=
EXTT0=
EXTT1=
EXTT2=
EXTT3=
EXTT4=
EXTT5=
EXTT6=
EXTT7=
EXTT8=
EXTT9=
EXTT10=
EXTT11=
EXTT12=
EXTT13=
EXTT14=
EXTT15=
EXTT16=
EXTT17=
EXTT18=
EXTT19=
PLAYORDER=
